<svg xmlns="http://www.w3.org/2000/svg" width="602.27954" height="181.49922"><g fill-rule="evenodd"><path fill="#f90" d="M373.6 142c-35 25.7-85.7 39.5-129.4 39.5a234.2 234.2 0 0 1-158-60.3c-3.3-3-.4-7 3.5-4.7a314.5 314.5 0 0 0 278.8 17.3c6-2.6 11 3.8 5.1 8.1"/><path fill="#f90" d="M388.2 125.3c-4.5-5.7-29.6-2.7-40.9-1.4-3.4.4-4-2.5-.8-4.7 20-14 52.8-10 56.6-5.3 3.9 4.8-1 37.7-19.8 53.4-2.8 2.4-5.6 1-4.3-2.1 4.2-10.5 13.7-34.2 9.2-40"/><path fill="#fff" d="M348.1 19.8V6.1c0-2 1.6-3.4 3.5-3.4h61.3c2 0 3.5 1.4 3.5 3.4V18c0 2-1.7 4.5-4.6 8.6L380 71.8a67.6 67.6 0 0 1 35 7.5c2.4 1.3 3 3.3 3.2 5.3v14.6c0 2-2.2 4.3-4.5 3.1a70.6 70.6 0 0 0-64.7.1c-2.1 1.2-4.4-1.1-4.4-3.1V85.4c0-2.2 0-6 2.3-9.4l36.8-52.7h-32c-2 0-3.6-1.4-3.6-3.5M124.6 105.2H106a3.5 3.5 0 0 1-3.3-3.2V6.4c0-2 1.6-3.5 3.6-3.5h17.3c1.8.1 3.3 1.5 3.4 3.2v12.5h.4c4.5-12 13-17.7 24.5-17.7 11.7 0 19 5.7 24.2 17.7A26.4 26.4 0 0 1 201.8 1c7.9 0 16.4 3.2 21.6 10.5 6 8 4.7 19.7 4.7 30v60.3c0 2-1.6 3.5-3.6 3.5h-18.6a3.5 3.5 0 0 1-3.4-3.5V51c0-4 .4-14-.5-17.9-1.4-6.4-5.6-8.2-11-8.2-4.5 0-9.2 3-11.1 7.8-2 4.8-1.7 13-1.7 18.3v50.7c0 2-1.6 3.5-3.6 3.5H156a3.5 3.5 0 0 1-3.4-3.5V51c0-10.6 1.7-26.3-11.5-26.3-13.4 0-12.9 15.3-12.9 26.3v50.7c0 2-1.6 3.5-3.6 3.5M469.2 1c27.6 0 42.6 23.7 42.6 53.9 0 29.2-16.6 52.3-42.6 52.3-27.2 0-42-23.8-42-53.4 0-29.7 15-52.9 42-52.9m.1 19.5c-13.7 0-14.6 18.8-14.6 30.4 0 11.7-.2 36.7 14.5 36.7 14.4 0 15-20.1 15-32.4 0-8-.3-17.7-2.7-25.4-2.1-6.7-6.3-9.3-12.2-9.3M547.6 105.2h-18.5a3.5 3.5 0 0 1-3.4-3.5V6.1a3.5 3.5 0 0 1 3.6-3.2h17.3c1.6.1 3 1.2 3.3 2.7v14.6h.3C555.5 7.2 562.8 1 575.6 1c8.4 0 16.6 3 21.8 11.3 4.9 7.6 4.9 20.5 4.9 29.8v60.2c-.2 1.7-1.8 3-3.6 3H580a3.5 3.5 0 0 1-3.3-3v-52c0-10.4 1.2-25.7-11.7-25.7-4.5 0-8.7 3-10.7 7.6-2.7 5.9-3 11.7-3 18.1v51.5c0 2-1.7 3.5-3.7 3.5M299.3 59.5c0 7.3.2 13.3-3.5 19.8-3 5.2-7.7 8.4-12.9 8.4-7.2 0-11.3-5.4-11.3-13.5 0-15.8 14.2-18.7 27.7-18.7v4M318 105a3.9 3.9 0 0 1-4.4.5c-6.2-5.1-7.3-7.5-10.7-12.4-10.2 10.4-17.5 13.5-30.7 13.5-15.7 0-28-9.7-28-29 0-15.2 8.2-25.5 20-30.5 10-4.5 24.2-5.2 35-6.5v-2.4c0-4.4.3-9.7-2.3-13.5-2.2-3.4-6.6-4.8-10.4-4.8-7.2 0-13.5 3.6-15 11.2-.3 1.6-1.6 3.3-3.3 3.4l-18-2c-1.6-.3-3.3-1.5-2.8-3.9C251.6 6.6 271.5 0 289.2 0c9 0 20.9 2.4 28 9.3 9.1 8.4 8.3 19.7 8.3 32v29c0 8.8 3.6 12.7 7 17.4 1.2 1.6 1.4 3.7-.1 5a791 791 0 0 0-14.3 12.3M55 59.5c0 7.3.1 13.3-3.6 19.8-3 5.2-7.6 8.4-12.9 8.4-7.1 0-11.3-5.4-11.3-13.5 0-15.8 14.2-18.7 27.7-18.7v4M73.7 105a3.9 3.9 0 0 1-4.4.5c-6.2-5.1-7.3-7.5-10.7-12.4-10.2 10.4-17.4 13.5-30.7 13.5-15.7 0-27.9-9.7-27.9-29C0 62.3 8.2 52 19.9 47c10-4.5 24.2-5.2 35-6.5v-2.4c0-4.4.4-9.7-2.2-13.5-2.3-3.4-6.7-4.8-10.5-4.8-7.1 0-13.4 3.6-15 11.2-.3 1.6-1.5 3.3-3.2 3.4l-18.1-2c-1.5-.3-3.2-1.5-2.8-3.9C7.3 6.6 27.1 0 44.8 0c9 0 21 2.4 28 9.3 9.2 8.4 8.3 19.7 8.3 32v29c0 8.8 3.6 12.7 7 17.4 1.2 1.6 1.5 3.7 0 5A791 791 0 0 0 73.8 105"/></g></svg>